<?xml version="1.0" encoding="UTF-8" standalone="no"?>
<!-- Created with Inkscape (http://www.inkscape.org/) -->

<svg
   width="512"
   height="512"
   viewBox="0 0 135.46666 135.46667"
   version="1.1"
   id="svg1"
   inkscape:version="1.3.2 (091e20e, 2023-11-25, custom)"
   sodipodi:docname="jav.svg"
   inkscape:export-filename="jav_w.png"
   inkscape:export-xdpi="96"
   inkscape:export-ydpi="96"
   xmlns:inkscape="http://www.inkscape.org/namespaces/inkscape"
   xmlns:sodipodi="http://sodipodi.sourceforge.net/DTD/sodipodi-0.dtd"
   xmlns="http://www.w3.org/2000/svg"
   xmlns:svg="http://www.w3.org/2000/svg">
  <sodipodi:namedview
     id="namedview1"
     pagecolor="#ffffff"
     bordercolor="#000000"
     borderopacity="0.25"
     inkscape:showpageshadow="2"
     inkscape:pageopacity="0.0"
     inkscape:pagecheckerboard="0"
     inkscape:deskcolor="#d1d1d1"
     inkscape:document-units="mm"
     inkscape:zoom="0.51717105"
     inkscape:cx="126.65055"
     inkscape:cy="264.90269"
     inkscape:window-width="1280"
     inkscape:window-height="738"
     inkscape:window-x="-6"
     inkscape:window-y="-6"
     inkscape:window-maximized="1"
     inkscape:current-layer="layer1" />
  <defs
     id="defs1">
    <rect
       x="92.812622"
       y="214.14579"
       width="178.37426"
       height="126.16716"
       id="rect1" />
    <rect
       x="92.812622"
       y="214.14579"
       width="178.37426"
       height="126.16716"
       id="rect2" />
    <rect
       x="92.812622"
       y="214.14579"
       width="178.37426"
       height="126.16716"
       id="rect3" />
    <rect
       x="92.812622"
       y="214.14579"
       width="178.37426"
       height="126.16716"
       id="rect4" />
    <rect
       x="92.812622"
       y="214.14579"
       width="178.37426"
       height="126.16716"
       id="rect5" />
    <rect
       x="92.812622"
       y="214.14579"
       width="178.37426"
       height="126.16716"
       id="rect6" />
  </defs>
  <g
     inkscape:label="图层 1"
     inkscape:groupmode="layer"
     id="layer1">
    <text
       xml:space="preserve"
       transform="matrix(7.8800673,0,0,7.8800673,-830.92774,-1692.0584)"
       id="text2"
       style="white-space:pre;shape-inside:url(#rect2);display:inline;fill:#80ff80;stroke-width:1.88976"><tspan
         x="92.8125"
         y="225.06499"
         id="tspan10">V</tspan></text>
    <text
       xml:space="preserve"
       transform="matrix(7.8800673,0,0,7.8800673,-828.11395,-1690.4708)"
       id="text3"
       style="white-space:pre;shape-inside:url(#rect3);display:inline;fill:#2b1100;stroke-width:1.88976"><tspan
         x="92.8125"
         y="225.06499"
         id="tspan11">V</tspan></text>
    <text
       xml:space="preserve"
       transform="matrix(7.8800673,0,0,7.8800673,-824.93893,-1688.8832)"
       id="text4"
       style="white-space:pre;shape-inside:url(#rect4);display:inline;fill:#d4ff2a;stroke-width:1.88976"><tspan
         x="92.8125"
         y="225.06499"
         id="tspan12">V</tspan></text>
    <text
       xml:space="preserve"
       transform="matrix(7.8800673,0,0,7.8800673,-864.64474,-1650.2908)"
       id="text1"
       style="white-space:pre;shape-inside:url(#rect1);display:inline;fill:#ff6600;stroke-width:1.88976"><tspan
         x="92.8125"
         y="225.06499"
         id="tspan13">A</tspan></text>
    <text
       xml:space="preserve"
       transform="matrix(7.8800673,0,0,7.8800673,-862.36012,-1648.3324)"
       id="text5"
       style="white-space:pre;shape-inside:url(#rect5);display:inline;fill:#000000;stroke-width:1.88976"><tspan
         x="92.8125"
         y="225.06499"
         id="tspan14">A</tspan></text>
    <text
       xml:space="preserve"
       transform="matrix(7.8800673,0,0,7.8800673,-859.71427,-1645.5538)"
       id="text6"
       style="white-space:pre;shape-inside:url(#rect6);display:inline;fill:#e9afaf;stroke-width:1.88976"><tspan
         x="92.8125"
         y="225.06499"
         id="tspan15">A</tspan></text>
    <text
       xml:space="preserve"
       style="font-size:91.6939px;fill:#0066ff;stroke-width:14.44"
       x="-136.53967"
       y="79.906998"
       id="text7"
       transform="scale(1.1021898,0.90728476)"><tspan
         sodipodi:role="line"
         id="tspan7"
         style="fill:#0066ff;stroke-width:14.4401"
         x="-136.53967"
         y="79.906998">J</tspan></text>
    <text
       xml:space="preserve"
       style="font-size:91.6939px;fill:#000000;stroke-width:14.44"
       x="-133.77234"
       y="83.504547"
       id="text8"
       transform="scale(1.1021898,0.90728476)"><tspan
         sodipodi:role="line"
         id="tspan8"
         style="fill:#000000;stroke-width:14.4401"
         x="-133.77234"
         y="83.504547">J</tspan></text>
    <text
       xml:space="preserve"
       style="font-size:91.6939px;fill:#aaeeff;stroke-width:14.44"
       x="-130.17479"
       y="86.963715"
       id="text9"
       transform="scale(1.1021898,0.90728476)"><tspan
         sodipodi:role="line"
         id="tspan9"
         style="fill:#aaeeff;stroke-width:14.4401"
         x="-130.17479"
         y="86.963715">J</tspan></text>
    <path
       style="fill:#000000;stroke-width:1.21987"
       d="M 67.934525,130.39216 C 67.632729,124.80399 60.604403,101.75787 59.1691,96.357846 51.417097,95.825176 49.640771,94.324244 42.213605,92.140561 37.547295,94.490366 29.743273,96.259037 24.48473,99.573896 26.654597,96.049072 33.65909,92.218389 34.612414,87.785551 26.325686,82.895786 14.000399,74.817857 6.2076986,65.673905 14.126541,55.359472 25.80446,48.886152 35.319882,43.051754 33.332032,38.367769 29.239086,36.762123 24.702246,30.138356 c 6.920684,3.20473 13.222868,6.249107 17.511359,9.08724 7.427572,-2.183464 10.348793,-4.687254 18.997819,-5.732429 1.596522,-5.467486 5.571321,-22.491264 6.242008,-27.9896258 0.550443,5.6747798 3.685311,23.1287838 5.242943,28.6300958 7.752003,0.53267 13.531861,2.908276 20.959024,5.091959 4.627932,-2.401894 10.104921,-5.348279 16.898191,-7.82672 -3.23708,4.670078 -6.58679,7.587052 -9.29468,12.18151 8.42663,4.712579 21.13003,11.909527 29.43215,22.093519 -7.79482,7.353287 -20.43022,16.81692 -29.54581,22.372504 -1.05984,4.700648 10.05806,13.094341 10.05806,13.094341 0,0 -13.058154,-6.765479 -18.174401,-9.297192 -5.647587,1.702834 -10.269566,3.664585 -16.147844,4.151986 z m 0,-39.751531 c 9.686259,-0.01427 24.445497,-4.767803 32.784505,-9.065734 8.33901,-4.297932 15.09846,-10.561396 21.02761,-15.90099 C 113.16129,58.170536 104.64346,52.411892 98.744614,49.228095 92.845781,46.044286 78.825385,41.051393 67.934525,40.788083 57.043669,40.524786 41.006309,46.587728 33.500547,51.20845 c -7.505764,4.620722 -11.871064,8.615222 -18.834731,14.465455 9.281677,8.195244 17.965416,15.033135 27.220711,19.013192 9.255293,3.980045 16.361744,5.967865 26.047998,5.953532 z"
       id="path1"
       sodipodi:nodetypes="ccccccccccccccccccccczzczzzczz" />
    <path
       id="path2"
       style="display:inline;fill:#000000;stroke-width:0.160887;stroke-linecap:round;stroke-opacity:0.99284"
       d="M 67.934355 43.824198 A 21.849535 21.849535 0 0 0 46.085042 65.674028 A 21.849535 21.849535 0 0 0 67.934355 87.52334 A 21.849535 21.849535 0 0 0 89.784184 65.674028 A 21.849535 21.849535 0 0 0 67.934355 43.824198 z M 65.100419 52.394735 A 12.326079 12.326079 0 0 0 58.393335 63.875688 A 12.326079 12.326079 0 0 0 71.215808 75.684269 A 12.326079 12.326079 0 0 0 82.447164 67.028984 A 14.157486 14.157486 0 0 1 68.928609 80.287606 A 14.157486 14.157486 0 0 1 54.200309 66.724609 A 14.157486 14.157486 0 0 1 65.100419 52.394735 z " />
  </g>
</svg>
