<?xml version="1.0" encoding="UTF-8" standalone="no"?>
<!-- Created with Inkscape (http://www.inkscape.org/) -->

<svg
   width="32"
   height="32"
   viewBox="0 0 8.4666665 8.4666667"
   version="1.1"
   id="svg1"
   inkscape:version="1.3.2 (091e20e, 2023-11-25, custom)"
   sodipodi:docname="love.svg"
   xmlns:inkscape="http://www.inkscape.org/namespaces/inkscape"
   xmlns:sodipodi="http://sodipodi.sourceforge.net/DTD/sodipodi-0.dtd"
   xmlns="http://www.w3.org/2000/svg"
   xmlns:svg="http://www.w3.org/2000/svg">
  <sodipodi:namedview
     id="namedview1"
     pagecolor="#ffffff"
     bordercolor="#000000"
     borderopacity="0.25"
     inkscape:showpageshadow="2"
     inkscape:pageopacity="0.0"
     inkscape:pagecheckerboard="0"
     inkscape:deskcolor="#d1d1d1"
     inkscape:document-units="mm"
     showguides="true"
     inkscape:zoom="5.8511223"
     inkscape:cx="53.23765"
     inkscape:cy="15.125303"
     inkscape:window-width="1920"
     inkscape:window-height="1017"
     inkscape:window-x="3832"
     inkscape:window-y="-8"
     inkscape:window-maximized="1"
     inkscape:current-layer="layer1">
    <sodipodi:guide
       position="4.2333333,8.4666667"
       orientation="-1,0"
       id="guide2"
       inkscape:locked="false"
       inkscape:label=""
       inkscape:color="rgb(0,134,229)" />
    <sodipodi:guide
       position="9.5604754,4.2333333"
       orientation="0,1"
       id="guide3"
       inkscape:locked="false"
       inkscape:label=""
       inkscape:color="rgb(0,134,229)" />
    <inkscape:page
       x="0"
       y="0"
       width="8.4666662"
       height="8.4666672"
       id="page3"
       margin="0"
       bleed="0"
       inkscape:export-filename="love_off.png"
       inkscape:export-xdpi="96"
       inkscape:export-ydpi="96" />
    <inkscape:page
       x="18.466665"
       y="0"
       width="8.4666662"
       height="8.4666672"
       id="page4"
       margin="0"
       bleed="0" />
    <sodipodi:guide
       position="22.699999,8.4666667"
       orientation="-1,0"
       id="guide4"
       inkscape:locked="false"
       inkscape:label=""
       inkscape:color="rgb(0,134,229)" />
  </sodipodi:namedview>
  <defs
     id="defs1" />
  <g
     inkscape:label="图层 1"
     inkscape:groupmode="layer"
     id="layer1">
    <path
       id="circle1"
       style="fill:#ff2a2a;stroke:#ff6600;stroke-width:0;stroke-linecap:round;stroke-opacity:0.99284"
       d="m 1.1188678,1.4409512 a 2.202394,2.202394 0 0 0 10e-8,3.1150021 L 4.2333334,7.6704186 7.3477989,4.5559533 a 2.202394,2.202394 0 0 0 -1e-7,-3.1150021 2.202394,2.202394 0 0 0 -3.1144654,5.366e-4 2.202394,2.202394 0 0 0 -3.1144656,-5.366e-4 z" />
    <path
       id="circle1-2"
       style="fill:#999999;stroke:none;stroke-width:0.15;stroke-linecap:round;stroke-opacity:0.99284;stroke-dasharray:none"
       d="M 20.951176 0.80460205 A 2.202394 2.202394 0 0 0 19.585368 1.4407389 A 2.202394 2.202394 0 0 0 19.585368 4.5557943 L 22.699906 7.6703328 L 25.814445 4.5557943 A 2.202394 2.202394 0 0 0 25.814445 1.4407389 A 2.202394 2.202394 0 0 0 22.699906 1.4412557 A 2.202394 2.202394 0 0 0 20.951176 0.80460205 z M 24.354069 1.3399699 C 25.517359 1.3685095 26.373014 2.8112284 25.701274 3.8338745 C 24.797324 4.9420907 23.682947 5.8773947 22.69939 6.919991 L 20.123836 4.3444377 C 19.198799 3.6158417 19.317099 2.0412991 20.386869 1.5115356 C 21.23855 1.0837672 22.058376 1.5253183 22.69939 2.0954793 C 23.139708 1.7931321 23.551306 1.3668657 24.117391 1.3534058 C 24.197318 1.3421945 24.276516 1.3380672 24.354069 1.3399699 z " />
  </g>
</svg>
