<?xml version="1.0" encoding="UTF-8" standalone="no"?>
<!-- Created with Inkscape (http://www.inkscape.org/) -->

<svg
   width="64"
   height="64"
   viewBox="0 0 16.933333 16.933333"
   version="1.1"
   id="svg1"
   xml:space="preserve"
   inkscape:version="1.3.2 (091e20e, 2023-11-25, custom)"
   sodipodi:docname="绘图.svg"
   inkscape:export-filename="mouse.png"
   inkscape:export-xdpi="96"
   inkscape:export-ydpi="96"
   xmlns:inkscape="http://www.inkscape.org/namespaces/inkscape"
   xmlns:sodipodi="http://sodipodi.sourceforge.net/DTD/sodipodi-0.dtd"
   xmlns="http://www.w3.org/2000/svg"
   xmlns:svg="http://www.w3.org/2000/svg"><sodipodi:namedview
     id="namedview1"
     pagecolor="#ffffff"
     bordercolor="#000000"
     borderopacity="0.25"
     inkscape:showpageshadow="2"
     inkscape:pageopacity="0.0"
     inkscape:pagecheckerboard="true"
     inkscape:deskcolor="#d1d1d1"
     inkscape:document-units="px"
     showguides="true"
     inkscape:zoom="8"
     inkscape:cx="36.9375"
     inkscape:cy="31.5625"
     inkscape:window-width="1920"
     inkscape:window-height="1017"
     inkscape:window-x="3832"
     inkscape:window-y="-8"
     inkscape:window-maximized="1"
     inkscape:current-layer="g42"><sodipodi:guide
       position="4.2333333,4.2333333"
       orientation="0,1"
       id="guide2"
       inkscape:locked="false"
       inkscape:label=""
       inkscape:color="rgb(0,134,229)" /><sodipodi:guide
       position="4.2333333,4.2333333"
       orientation="1,0"
       id="guide3"
       inkscape:locked="false" /></sodipodi:namedview><defs
     id="defs1"><inkscape:path-effect
       effect="copy_rotate"
       starting_point="-10.205121,8.992981"
       origin="-11.983099,8.9929772"
       id="path-effect2"
       is_visible="true"
       lpeversion="1.2"
       lpesatellites=""
       method="normal"
       num_copies="24"
       starting_angle="-0.72868196"
       rotation_angle="15"
       gap="-0.01"
       copies_to_360="true"
       mirror_copies="false"
       split_items="false"
       link_styles="false" /><inkscape:path-effect
       effect="copy_rotate"
       starting_point="9.182268,0.41687981"
       origin="7.5086499,0.39283968"
       id="path-effect13"
       is_visible="true"
       lpeversion="1.2"
       lpesatellites=""
       method="normal"
       num_copies="24"
       starting_angle="0"
       rotation_angle="15"
       gap="-0.01"
       copies_to_360="true"
       mirror_copies="false"
       split_items="false"
       link_styles="false" /></defs><g
     inkscape:label="图层 1"
     inkscape:groupmode="layer"
     id="layer1"><g
       id="g42"
       transform="matrix(0.87359361,0,0,0.87359361,12.295401,-5.2978519)"><g
         id="g41"
         style="stroke:#ff6600"
         transform="matrix(1.9700105,0,0,1.9700105,13.527202,-5.7937101)"><path
           style="fill:#e6e6e6;stroke:#ff6600;stroke-width:0.119062;stroke-linecap:round;stroke-dasharray:none;stroke-opacity:0.99284"
           d="m -10.918902,9.7261711 1.3756845,0.9130749"
           id="path25" /><path
           style="fill:#e6e6e6;stroke:#ff6600;stroke-width:0.119062;stroke-linecap:round;stroke-dasharray:none;stroke-opacity:0.99284"
           d="m -11.410278,8.2869836 1.9744625,2.2329674"
           id="path24" /><path
           style="fill:#e6e6e6;stroke:#ff6600;stroke-width:0.119062;stroke-linecap:round;stroke-dasharray:none;stroke-opacity:0.99284"
           d="m -10.389324,8.2014355 1.0881255,2.2310825"
           id="path23" /><path
           style="fill:#e6e6e6;stroke:#ff6600;stroke-width:0.119062;stroke-linecap:round;stroke-dasharray:none;stroke-opacity:0.99284"
           d="m -9.8237605,6.921894 0.675222,3.461012"
           id="path22" /><path
           style="fill:#e6e6e6;stroke:#ff6600;stroke-width:0.119062;stroke-linecap:round;stroke-dasharray:none;stroke-opacity:0.99284"
           d="m -8.8203005,7.9016669 -0.167939,2.4728291"
           id="path21" /><path
           style="fill:#e6e6e6;stroke:#ff6600;stroke-width:0.119062;stroke-linecap:round;stroke-dasharray:none;stroke-opacity:0.99284"
           d="m -7.7203845,7.1799234 -1.110846,3.2279376"
           id="path20" /><path
           style="fill:#e6e6e6;stroke:#ff6600;stroke-width:0.119062;stroke-linecap:round;stroke-dasharray:none;stroke-opacity:0.99284"
           d="m -7.5752855,8.8092756 -1.112917,1.6714514"
           id="path19" /><path
           style="fill:#e6e6e6;stroke:#ff6600;stroke-width:0.119062;stroke-linecap:round;stroke-dasharray:none;stroke-opacity:0.99284"
           d="M -5.8643114,8.2219747 -8.5689075,10.588128"
           id="path18" /><path
           style="fill:#e6e6e6;stroke:#ff6600;stroke-width:0.119062;stroke-linecap:round;stroke-dasharray:none;stroke-opacity:0.99284"
           d="M -6.1544677,9.5866582 -8.4814745,10.722746"
           id="path17" /><path
           style="fill:#e6e6e6;stroke:#ff6600;stroke-width:0.119062;stroke-linecap:round;stroke-dasharray:none;stroke-opacity:0.99284"
           d="m -5.0268067,10.200184 -3.4050558,0.675222"
           id="path16" /><path
           style="fill:#e6e6e6;stroke:#ff6600;stroke-width:0.119062;stroke-linecap:round;stroke-dasharray:none;stroke-opacity:0.99284"
           d="M -6.8299316,11.147688 -8.4234525,11.035705"
           id="path15" /><path
           style="fill:#e6e6e6;stroke:#ff6600;stroke-width:0.119062;stroke-linecap:round;stroke-dasharray:none;stroke-opacity:0.99284"
           d="m -5.6285655,12.159678 -2.828252,-0.96696"
           id="path14" /><path
           style="fill:#e6e6e6;stroke:#ff6600;stroke-width:0.119062;stroke-linecap:round;stroke-dasharray:none;stroke-opacity:0.99284"
           d="m -8.4409945,14.0379 -0.483373,-2.445812"
           id="path10" /><path
           style="fill:#e6e6e6;stroke:#ff6600;stroke-width:0.119062;stroke-linecap:round;stroke-dasharray:none;stroke-opacity:0.99284"
           d="m -9.2286245,13.961416 0.143958,-2.360918"
           id="path9" /><path
           style="fill:#e6e6e6;stroke:#ff6600;stroke-width:0.119062;stroke-linecap:round;stroke-dasharray:none;stroke-opacity:0.99284"
           d="m -10.304559,14.643191 1.0628845,-3.076057"
           id="path8" /><path
           style="fill:#e6e6e6;stroke:#ff6600;stroke-width:0.119062;stroke-linecap:round;stroke-dasharray:none;stroke-opacity:0.99284"
           d="m -10.249815,12.790014 0.8651125,-1.295746"
           id="path7" /><path
           style="fill:#e6e6e6;stroke:#ff6600;stroke-width:0.119062;stroke-linecap:round;stroke-dasharray:none;stroke-opacity:0.99284"
           d="m -12.240569,13.777 2.7365715,-2.390134"
           id="path6" /><path
           style="fill:#e6e6e6;stroke:#ff6600;stroke-width:0.119062;stroke-linecap:round;stroke-dasharray:none;stroke-opacity:0.99284"
           d="m -11.862482,12.380343 2.2710515,-1.128095"
           id="path5" /><path
           style="fill:#e6e6e6;stroke:#ff6600;stroke-width:0.119062;stroke-linecap:round;stroke-dasharray:none;stroke-opacity:0.99284"
           d="m -13.102055,11.798792 3.4610125,-0.699204"
           id="path4" /><path
           style="fill:#e6e6e6;stroke:#ff6600;stroke-width:0.119062;stroke-linecap:round;stroke-dasharray:none;stroke-opacity:0.99284"
           d="m -12.042345,10.779344 2.3928925,0.159946"
           id="path3" /><path
           style="fill:#e6e6e6;stroke:#ff6600;stroke-width:0.119062;stroke-linecap:round;stroke-dasharray:none;stroke-opacity:0.99284"
           d="m -13.15578,9.5275413 3.5396925,1.2547327"
           id="path2" /></g><path
         style="fill:#333333;stroke:#333333;stroke-width:0.521231;stroke-linecap:round;stroke-dasharray:none;stroke-opacity:1"
         d="m -4.2969761,15.840637 7.6388154,8.685532"
         id="path26" /><path
         id="path35"
         style="fill:#ffffff;fill-opacity:1;stroke:none;stroke-width:0;stroke-linecap:round;stroke-dasharray:none"
         d="m -7.0694671,19.520028 -0.1314784,0.424719 -0.4127789,-0.165284 0.3011758,0.327373 -0.3483018,0.273536 0.4331007,-0.09817 0.063455,0.440182 0.1314393,-0.424142 4.67e-5,-5.73e-4 0.4127744,0.165284 -0.3016521,-0.325991 0.3493306,-0.274922 -0.4382463,0.104689 z"
         sodipodi:nodetypes="cccccccccccccc" /><path
         id="path36"
         style="fill:#ffffff;fill-opacity:1;stroke:none;stroke-width:0;stroke-linecap:round;stroke-dasharray:none"
         d="m -2.7381364,22.005942 -0.22689,0.38235 -0.3628582,-0.25698 0.2165357,0.388577 -0.402483,0.184787 0.4440521,0.0055 -0.040937,0.442845 0.2267166,-0.381802 1.793e-4,-5.46e-4 0.3628543,0.256978 -0.2173218,-0.387347 0.4038068,-0.185889 -0.4505768,-3.91e-4 z"
         sodipodi:nodetypes="cccccccccccccc" /><path
         id="path37"
         style="fill:#ffffff;fill-opacity:1;stroke:none;stroke-width:0;stroke-linecap:round;stroke-dasharray:none"
         d="m -12.632669,17.168058 -0.389737,0.213957 -0.181871,-0.405742 -0.01103,0.4447 -0.440538,-0.04543 0.379611,0.23045 -0.26034,0.36057 0.389307,-0.213571 4.32e-4,-3.81e-4 0.181871,0.405737 0.0096,-0.444035 0.442239,0.04516 -0.387835,-0.229353 z"
         sodipodi:nodetypes="cccccccccccccc" /><path
         id="path38"
         style="fill:#ffffff;fill-opacity:1;stroke:none;stroke-width:0;stroke-linecap:round;stroke-dasharray:none"
         d="m -8.1004251,12.960904 -0.4227032,-0.137822 0.1714499,-0.410255 -0.3318484,0.296235 -0.2683002,-0.352354 0.091688,0.434518 -0.4410841,0.05686 0.4221282,0.137774 5.708e-4,5.5e-5 -0.1714499,0.410252 0.3304246,-0.296788 0.2696648,0.353405 -0.098104,-0.439764 z"
         sodipodi:nodetypes="cccccccccccccc" /><path
         id="path39"
         style="fill:#ffffff;fill-opacity:1;stroke:none;stroke-width:0;stroke-linecap:round;stroke-dasharray:none"
         d="m -5.443672,6.9649518 -0.444409,-0.013179 0.048953,-0.441936 -0.2349771,0.3777097 -0.3566811,-0.2625208 0.2103576,0.3911028 -0.4072109,0.1787903 0.443842,0.013298 5.632e-4,-1.079e-4 -0.048953,0.4419328 0.2334573,-0.3778377 0.3582856,0.2631447 -0.2179973,-0.394328 z"
         sodipodi:nodetypes="cccccccccccccc" /><path
         id="path40"
         style="fill:#ffffff;fill-opacity:1;stroke:none;stroke-width:0;stroke-linecap:round;stroke-dasharray:none"
         d="m -0.46843617,11.240845 -0.29289512,-0.334492 0.35703677,-0.265008 -0.43663507,0.08503 -0.0505308,-0.439982 -0.14325911,0.420342 -0.4081863,-0.176554 0.2924244,0.334157 4.611e-4,3.39e-4 -0.3570329,0.265005 0.4356914,-0.08622 0.051181,0.441581 0.14042231,-0.428133 z"
         sodipodi:nodetypes="cccccccccccccc" /><path
         id="path41"
         style="fill:#ffffff;fill-opacity:1;stroke:none;stroke-width:0;stroke-linecap:round;stroke-dasharray:none"
         d="m 1.3134544,16.542169 -0.3105723,-0.318147 0.3421682,-0.283949 -0.43139241,0.108529 -0.074273,-0.436603 -0.1202947,0.427481 -0.4171449,-0.154192 0.3100841,0.317837 4.784e-4,3.16e-4 -0.34216421,0.283942 0.43038501,-0.109689 0.075009,0.438164 0.1170403,-0.435107 z"
         sodipodi:nodetypes="cccccccccccccc" /></g></g></svg>
